<?xml version="1.0" encoding="UTF-8"?>
<svg xmlns="http://www.w3.org/2000/svg" xmlns:xlink="http://www.w3.org/1999/xlink" width="48px" height="48px" viewBox="0 0 48 48" version="1.1">
<g id="surface1">
<rect x="0" y="0" width="48" height="48" style="fill:rgb(14.901961%,14.901961%,14.901961%);fill-opacity:1;stroke:none;"/>
<path style=" stroke:none;fill-rule:nonzero;fill:rgb(100%,100%,100%);fill-opacity:1;" d="M 10.902344 19.40625 L 16.480469 19.40625 L 16.480469 37.328125 L 10.902344 37.328125 Z M 13.691406 10.5 C 15.476562 10.5 16.921875 11.949219 16.921875 13.730469 C 16.921875 15.515625 15.472656 16.960938 13.691406 16.960938 C 11.90625 16.960938 10.460938 15.511719 10.460938 13.730469 C 10.460938 11.945312 11.910156 10.5 13.691406 10.5 "/>
<path style=" stroke:none;fill-rule:nonzero;fill:rgb(100%,100%,100%);fill-opacity:1;" d="M 19.96875 19.40625 L 25.3125 19.40625 L 25.3125 21.855469 L 25.386719 21.855469 C 26.132812 20.449219 27.949219 18.960938 30.65625 18.960938 C 36.296875 18.960938 37.339844 22.671875 37.339844 27.5 L 37.339844 37.328125 L 31.769531 37.328125 L 31.769531 28.609375 C 31.769531 26.53125 31.734375 23.855469 28.875 23.855469 C 25.980469 23.855469 25.535156 26.121094 25.535156 28.460938 L 25.535156 37.324219 L 19.96875 37.324219 Z M 19.96875 19.40625 "/>
</g>
</svg>
